<svg width="28" height="28" viewBox="0 0 28 28" fill="none" xmlns="http://www.w3.org/2000/svg">
<path opacity="0.2" d="M22.7501 11.375C22.7513 12.7008 22.4506 14.0095 21.871 15.2018C21.2913 16.3942 20.4478 17.4389 19.4044 18.2569C19.0857 18.5038 18.8274 18.8201 18.6491 19.1816C18.4708 19.5432 18.3771 19.9406 18.3751 20.3437V21C18.3751 21.232 18.2829 21.4546 18.1189 21.6187C17.9548 21.7828 17.7322 21.875 17.5001 21.875H10.5001C10.2681 21.875 10.0455 21.7828 9.88142 21.6187C9.71732 21.4546 9.62513 21.232 9.62513 21V20.3437C9.62472 19.9428 9.53289 19.5473 9.35663 19.1872C9.18036 18.8271 8.92432 18.5119 8.60795 18.2656C7.56776 17.453 6.72524 16.4153 6.14367 15.2304C5.5621 14.0454 5.2566 12.7441 5.25013 11.4242C5.22388 6.6817 9.04763 2.73436 13.789 2.62498C14.9557 2.59683 16.1163 2.80235 17.2024 3.22946C18.2885 3.65656 19.2781 4.29662 20.1131 5.11195C20.9481 5.92729 21.6116 6.90142 22.0645 7.97702C22.5173 9.05261 22.7505 10.2079 22.7501 11.375Z" fill="#50555F"/>
<path d="M19.2501 25.375C19.2501 25.607 19.158 25.8296 18.9939 25.9937C18.8298 26.1578 18.6072 26.25 18.3751 26.25H9.62514C9.39308 26.25 9.17052 26.1578 9.00642 25.9937C8.84233 25.8296 8.75014 25.607 8.75014 25.375C8.75014 25.1429 8.84233 24.9204 9.00642 24.7563C9.17052 24.5922 9.39308 24.5 9.62514 24.5H18.3751C18.6072 24.5 18.8298 24.5922 18.9939 24.7563C19.158 24.9204 19.2501 25.1429 19.2501 25.375ZM23.6251 11.375C23.6289 12.8337 23.2994 14.2739 22.6617 15.5858C22.0241 16.8977 21.0951 18.0466 19.9458 18.9448C19.7309 19.1096 19.5565 19.3212 19.4359 19.5637C19.3153 19.8062 19.2518 20.073 19.2501 20.3437V21C19.2501 21.4641 19.0658 21.9092 18.7376 22.2374C18.4094 22.5656 17.9643 22.75 17.5001 22.75H10.5001C10.036 22.75 9.5909 22.5656 9.26271 22.2374C8.93452 21.9092 8.75014 21.4641 8.75014 21V20.3437C8.74996 20.0762 8.68845 19.8123 8.57032 19.5722C8.45219 19.3322 8.2806 19.1224 8.06874 18.959C6.92227 18.0662 5.99394 16.9242 5.35403 15.6195C4.71411 14.3149 4.37937 12.8817 4.37514 11.4286C4.34671 6.21577 8.55983 1.87467 13.7683 1.74999C15.0516 1.71906 16.3282 1.94517 17.5228 2.41501C18.7175 2.88484 19.8061 3.58891 20.7246 4.48577C21.643 5.38263 22.3728 6.45417 22.871 7.6373C23.3691 8.82044 23.6255 10.0913 23.6251 11.375ZM21.8751 11.375C21.8755 10.3246 21.6656 9.2848 21.258 8.31674C20.8504 7.34868 20.2533 6.47194 19.5017 5.73814C18.7502 5.00434 17.8595 4.42829 16.8819 4.04392C15.9044 3.65954 14.8599 3.4746 13.8098 3.49999C9.54421 3.60061 6.10217 7.15202 6.12514 11.4176C6.12914 12.6061 6.40339 13.7781 6.92714 14.8449C7.45089 15.9117 8.21042 16.8455 9.14827 17.5755C9.56985 17.9032 9.91085 18.323 10.1452 18.8029C10.3795 19.2827 10.5009 19.8098 10.5001 20.3437V21H17.5001V20.3437C17.5014 19.8082 17.6249 19.2801 17.8612 18.7996C18.0976 18.3191 18.4406 17.8989 18.864 17.5711C19.8048 16.8359 20.5651 15.8955 21.0869 14.8216C21.6088 13.7478 21.8784 12.5689 21.8751 11.375ZM20.1131 10.3534C19.8862 9.08609 19.2765 7.9187 18.366 7.00841C17.4555 6.09812 16.288 5.48864 15.0206 5.26202C14.9073 5.24291 14.7913 5.24632 14.6793 5.27204C14.5673 5.29776 14.4614 5.34529 14.3678 5.41191C14.2742 5.47854 14.1946 5.56296 14.1335 5.66035C14.0725 5.75774 14.0313 5.86619 14.0122 5.97952C13.9931 6.09284 13.9965 6.20882 14.0222 6.32083C14.0479 6.43285 14.0954 6.53869 14.1621 6.63234C14.2287 6.72598 14.3131 6.80558 14.4105 6.8666C14.5079 6.92761 14.6163 6.96885 14.7297 6.98796C16.542 7.29311 18.0798 8.83092 18.3872 10.6465C18.4218 10.8503 18.5275 11.0353 18.6854 11.1686C18.8434 11.302 19.0434 11.3751 19.2501 11.375C19.2996 11.3747 19.349 11.3707 19.3978 11.363C19.6265 11.3239 19.8304 11.1956 19.9645 11.0063C20.0986 10.817 20.1521 10.5821 20.1131 10.3534Z" fill="#50555F"/>
</svg>
