<svg width="40" height="40" viewBox="0 0 40 40" fill="none" xmlns="http://www.w3.org/2000/svg">
<rect width="40" height="40" rx="20" fill="#DFF6E5"/>
<path d="M28.25 11.1875H16.25C16.1008 11.1875 15.9577 11.2468 15.8523 11.3523C15.7468 11.4577 15.6875 11.6008 15.6875 11.75V15.6875H11.75C11.6008 15.6875 11.4577 15.7468 11.3523 15.8523C11.2468 15.9577 11.1875 16.1008 11.1875 16.25V28.25C11.1875 28.3992 11.2468 28.5423 11.3523 28.6477C11.4577 28.7532 11.6008 28.8125 11.75 28.8125H23.75C23.8992 28.8125 24.0423 28.7532 24.1477 28.6477C24.2532 28.5423 24.3125 28.3992 24.3125 28.25V24.3125H28.25C28.3992 24.3125 28.5423 24.2532 28.6477 24.1477C28.7532 24.0423 28.8125 23.8992 28.8125 23.75V11.75C28.8125 11.6008 28.7532 11.4577 28.6477 11.3523C28.5423 11.2468 28.3992 11.1875 28.25 11.1875ZM23.1875 27.6875H12.3125V16.8125H23.1875V27.6875ZM27.6875 23.1875H24.3125V16.25C24.3125 16.1008 24.2532 15.9577 24.1477 15.8523C24.0423 15.7468 23.8992 15.6875 23.75 15.6875H16.8125V12.3125H27.6875V23.1875Z" fill="#2EAE4E"/>
</svg>
