<svg width="28" height="29" viewBox="0 0 28 29" fill="none" xmlns="http://www.w3.org/2000/svg">
<g clip-path="url(#clip0_190_23902)">
<path opacity="0.2" d="M22.75 12.25V13.125C22.75 14.5174 22.1969 15.8527 21.2123 16.8373C20.2277 17.8219 18.8924 18.375 17.5 18.375H14.875C15.8033 18.375 16.6935 18.7437 17.3499 19.4001C18.0063 20.0565 18.375 20.9467 18.375 21.875V26.25H11.375V21.875C11.375 20.9467 11.7437 20.0565 12.4001 19.4001C13.0565 18.7437 13.9467 18.375 14.875 18.375H12.25C10.8576 18.375 9.52226 17.8219 8.53769 16.8373C7.55312 15.8527 7 14.5174 7 13.125V12.25C7.00832 11.1846 7.33222 10.1455 7.93078 9.26406C7.62505 8.4724 7.50063 7.62228 7.56669 6.7762C7.63275 5.93013 7.8876 5.10962 8.3125 4.375C9.26772 4.37478 10.2076 4.61514 11.0454 5.07391C11.8833 5.53268 12.5921 6.19509 13.1064 7H16.6436C17.1579 6.19509 17.8667 5.53268 18.7046 5.07391C19.5424 4.61514 20.4823 4.37478 21.4375 4.375C21.8624 5.10962 22.1173 5.93013 22.1833 6.7762C22.2494 7.62228 22.125 8.4724 21.8192 9.26406C22.4178 10.1455 22.7417 11.1846 22.75 12.25Z" fill="#50555F"/>
<path d="M22.7828 9.15251C23.0507 8.28987 23.1368 7.38106 23.0357 6.48346C22.9346 5.58585 22.6485 4.71896 22.1955 3.93751C22.1187 3.80447 22.0082 3.69399 21.8751 3.61719C21.7421 3.54039 21.5911 3.49998 21.4375 3.50001C20.4183 3.49788 19.4128 3.73415 18.5012 4.18993C17.5896 4.64572 16.7973 5.3084 16.1875 6.12501H13.5625C12.9527 5.3084 12.1604 4.64572 11.2488 4.18993C10.3372 3.73415 9.33167 3.49788 8.3125 3.50001C8.15887 3.49998 8.00794 3.54039 7.87489 3.61719C7.74183 3.69399 7.63135 3.80447 7.55453 3.93751C7.10155 4.71898 6.8154 5.58582 6.71413 6.48339C6.61285 7.38095 6.69864 8.28976 6.96609 9.15251C6.42548 10.0961 6.13589 11.1626 6.125 12.25V13.125C6.12684 14.6055 6.6643 16.0354 7.63812 17.1505C8.61194 18.2657 9.95636 18.9908 11.4231 19.192C10.8244 19.9582 10.4994 20.9027 10.5 21.875V22.75H7.875C7.17881 22.75 6.51113 22.4735 6.01884 21.9812C5.52656 21.4889 5.25 20.8212 5.25 20.125C5.25 19.5505 5.13684 18.9816 4.91697 18.4508C4.69711 17.92 4.37485 17.4377 3.96859 17.0314C3.56234 16.6252 3.08004 16.3029 2.54924 16.083C2.01844 15.8632 1.44953 15.75 0.875 15.75C0.642936 15.75 0.420376 15.8422 0.256282 16.0063C0.0921872 16.1704 0 16.393 0 16.625C0 16.8571 0.0921872 17.0796 0.256282 17.2437C0.420376 17.4078 0.642936 17.5 0.875 17.5C1.57119 17.5 2.23887 17.7766 2.73116 18.2689C3.22344 18.7611 3.5 19.4288 3.5 20.125C3.5 21.2853 3.96094 22.3981 4.78141 23.2186C5.60188 24.0391 6.71468 24.5 7.875 24.5H10.5V26.25C10.5 26.4821 10.5922 26.7046 10.7563 26.8687C10.9204 27.0328 11.1429 27.125 11.375 27.125C11.6071 27.125 11.8296 27.0328 11.9937 26.8687C12.1578 26.7046 12.25 26.4821 12.25 26.25V21.875C12.25 21.1788 12.5266 20.5111 13.0188 20.0189C13.5111 19.5266 14.1788 19.25 14.875 19.25C15.5712 19.25 16.2389 19.5266 16.7312 20.0189C17.2234 20.5111 17.5 21.1788 17.5 21.875V26.25C17.5 26.4821 17.5922 26.7046 17.7563 26.8687C17.9204 27.0328 18.1429 27.125 18.375 27.125C18.6071 27.125 18.8296 27.0328 18.9937 26.8687C19.1578 26.7046 19.25 26.4821 19.25 26.25V21.875C19.2506 20.9027 18.9256 19.9582 18.3269 19.192C19.7936 18.9908 21.1381 18.2657 22.1119 17.1505C23.0857 16.0354 23.6232 14.6055 23.625 13.125V12.25C23.6145 11.1624 23.3244 10.0957 22.7828 9.15251ZM21.875 13.125C21.875 14.2853 21.4141 15.3981 20.5936 16.2186C19.7731 17.0391 18.6603 17.5 17.5 17.5H12.25C11.0897 17.5 9.97688 17.0391 9.15641 16.2186C8.33594 15.3981 7.875 14.2853 7.875 13.125V12.25C7.88573 11.375 8.14769 10.5216 8.62969 9.79126C8.71954 9.67283 8.77774 9.53346 8.79879 9.3863C8.81984 9.23914 8.80305 9.08904 8.75 8.95017C8.52209 8.36239 8.4124 7.7354 8.42723 7.10515C8.44206 6.4749 8.5811 5.85377 8.83641 5.27736C9.5525 5.35439 10.2421 5.59161 10.854 5.97142C11.466 6.35123 11.9846 6.8639 12.3714 7.47142C12.4502 7.59469 12.5587 7.69623 12.6869 7.76673C12.8151 7.83724 12.959 7.87447 13.1053 7.87501H16.6436C16.7905 7.87502 16.935 7.83805 17.0638 7.76752C17.1926 7.69699 17.3017 7.59516 17.3808 7.47142C17.7676 6.86385 18.2862 6.35114 18.8981 5.97132C19.5101 5.5915 20.1997 5.35432 20.9158 5.27736C21.1707 5.85392 21.3094 6.47512 21.3239 7.10537C21.3383 7.73562 21.2283 8.36253 21 8.95017C20.9471 9.08772 20.9294 9.23629 20.9485 9.38241C20.9676 9.52853 21.0229 9.66756 21.1094 9.78689C21.5959 10.5173 21.8617 11.3725 21.875 12.25V13.125Z" fill="#50555F"/>
</g>
<defs>
<clipPath id="clip0_190_23902">
<rect width="28" height="28" fill="white" transform="translate(0 0.875)"/>
</clipPath>
</defs>
</svg>
