<svg width="120" height="120" viewBox="0 0 120 120" fill="none" xmlns="http://www.w3.org/2000/svg">
<g filter="url(#filter0_d_909_5246)">
<path d="M73.4805 56.0355C75.4331 54.0829 75.4331 50.9171 73.4805 48.9645C71.5279 47.0118 68.3621 47.0118 66.4095 48.9644L56.7157 58.6581L55.3063 57.2487C53.3537 55.2961 50.1879 55.2961 48.2352 57.2487C46.2826 59.2013 46.2826 62.3671 48.2352 64.3198L53.1802 69.2647C55.1328 71.2173 58.2986 71.2173 60.2513 69.2647L73.4805 56.0355Z" fill="#EE1C1C"/>
<path fill-rule="evenodd" clip-rule="evenodd" d="M67.4382 10.0938C62.6639 8.18097 57.3361 8.18097 52.5618 10.0938L34.4289 17.3587C34.3725 17.3813 34.3166 17.4049 34.261 17.4296L26.5234 20.862C19.7373 23.8723 14.9993 30.5003 15 38.2185C15.0008 48.0546 15.71 64.7032 20.3342 76.1263C23.409 83.7216 28.9468 90.3048 34.5752 95.5657C40.2439 100.864 46.2832 105.078 50.7253 107.883C56.4179 111.478 63.5821 111.478 69.2747 107.883C73.7168 105.078 79.7561 100.864 85.4249 95.5657C91.0532 90.3048 96.591 83.7216 99.6658 76.1263C104.29 64.7032 104.999 48.0546 105 38.2185C105.001 30.5003 100.263 23.8723 93.4766 20.862L85.739 17.4296C85.6834 17.4049 85.6275 17.3813 85.5711 17.3587L67.4382 10.0938ZM56.2809 19.3765C58.6681 18.4201 61.3319 18.4201 63.7191 19.3765L81.7674 26.6075L89.4217 30.003C92.8658 31.5307 95.0003 34.7444 95 38.2177C94.9992 48.1218 94.2077 62.9593 90.3965 72.3739C88.0866 78.0798 83.6937 83.4955 78.5963 88.2602C73.5393 92.987 68.0579 96.825 63.9357 99.4279C61.5046 100.963 58.4954 100.963 56.0643 99.4279C51.9421 96.825 46.4607 92.987 41.4037 88.2602C36.3063 83.4955 31.9134 78.0798 29.6035 72.3739C25.7923 62.9593 25.0008 48.1218 25 38.2177C24.9997 34.7444 27.1342 31.5307 30.5783 30.003L38.2326 26.6075L56.2809 19.3765Z" fill="#EE1C1C"/>
</g>
<defs>
<filter id="filter0_d_909_5246" x="11" y="8.65918" width="94" height="109.92" filterUnits="userSpaceOnUse" color-interpolation-filters="sRGB">
<feFlood flood-opacity="0" result="BackgroundImageFix"/>
<feColorMatrix in="SourceAlpha" type="matrix" values="0 0 0 0 0 0 0 0 0 0 0 0 0 0 0 0 0 0 127 0" result="hardAlpha"/>
<feOffset dx="-4" dy="8"/>
<feComposite in2="hardAlpha" operator="out"/>
<feColorMatrix type="matrix" values="0 0 0 0 0.960784 0 0 0 0 0.4 0 0 0 0 0.188235 0 0 0 0.37 0"/>
<feBlend mode="normal" in2="BackgroundImageFix" result="effect1_dropShadow_909_5246"/>
<feBlend mode="normal" in="SourceGraphic" in2="effect1_dropShadow_909_5246" result="shape"/>
</filter>
</defs>
</svg>
