<svg width="28" height="28" viewBox="0 0 28 28" fill="none" xmlns="http://www.w3.org/2000/svg">
<path opacity="0.2" d="M10.5 26.25L12.25 17.5L5.25 14.875L17.5 1.75L15.75 10.5L22.75 13.125L10.5 26.25Z" fill="#50555F"/>
<path d="M23.6033 12.9249C23.5702 12.7846 23.5029 12.6547 23.4075 12.5467C23.3121 12.4387 23.1915 12.356 23.0564 12.3058L16.7553 9.9422L18.3588 1.92173C18.3951 1.73538 18.3698 1.54227 18.2867 1.37155C18.2036 1.20083 18.0673 1.06177 17.8983 0.975332C17.7292 0.888898 17.5367 0.859789 17.3496 0.892399C17.1626 0.925008 16.9912 1.01757 16.8614 1.15611L4.61141 14.2811C4.51192 14.3859 4.43995 14.5138 4.40192 14.6532C4.36389 14.7927 4.361 14.9394 4.3935 15.0802C4.426 15.221 4.49288 15.3516 4.58816 15.4603C4.68345 15.569 4.80417 15.6523 4.93954 15.703L11.2428 18.0666L9.64376 26.0783C9.60745 26.2646 9.63274 26.4578 9.7158 26.6285C9.79887 26.7992 9.93521 26.9383 10.1043 27.0247C10.2733 27.1111 10.4659 27.1402 10.6529 27.1076C10.8399 27.075 11.0113 26.9825 11.1411 26.8439L23.3911 13.7189C23.4888 13.6141 23.5592 13.4868 23.5962 13.3484C23.6332 13.2099 23.6357 13.0645 23.6033 12.9249ZM11.9636 23.4063L13.1088 17.6772C13.1497 17.474 13.1173 17.2629 13.0171 17.0814C12.917 16.8999 12.7556 16.7599 12.5619 16.6863L6.78251 14.5152L16.0378 4.59923L14.8938 10.3283C14.8528 10.5315 14.8852 10.7426 14.9854 10.9241C15.0856 11.1056 15.2469 11.2456 15.4406 11.3192L21.2156 13.4849L11.9636 23.4063Z" fill="#50555F"/>
</svg>
