<svg width="28" height="29" viewBox="0 0 28 29" fill="none" xmlns="http://www.w3.org/2000/svg">
<path opacity="0.2" d="M9.62414 22.7499V15.6263L14.4771 19.8821L11.1291 23.3558C11.0082 23.4813 10.8525 23.5679 10.682 23.6043C10.5115 23.6407 10.3341 23.6254 10.1723 23.5603C10.0106 23.4952 9.87207 23.3832 9.77439 23.2389C9.67672 23.0945 9.6244 22.9242 9.62414 22.7499ZM25.2243 4.38254L3.06164 13.0571C2.92404 13.11 2.80733 13.2062 2.72903 13.3311C2.65072 13.4561 2.61506 13.603 2.62739 13.75C2.63971 13.8969 2.69936 14.0359 2.79739 14.146C2.89541 14.2561 3.02651 14.3315 3.17102 14.3608L9.62414 15.6263L25.3741 4.50832C25.3789 4.48857 25.378 4.46789 25.3716 4.44861C25.3652 4.42932 25.3536 4.41219 25.3381 4.39914C25.3225 4.38608 25.3036 4.37761 25.2835 4.37468C25.2635 4.37175 25.2429 4.37447 25.2243 4.38254Z" fill="#50555F"/>
<path d="M25.9095 3.73933C25.7739 3.62226 25.6089 3.54441 25.4324 3.51415C25.2559 3.48389 25.0744 3.50237 24.9076 3.56761L2.74164 12.2421C2.4275 12.3643 2.16154 12.5852 1.98381 12.8716C1.80607 13.158 1.72619 13.4943 1.75617 13.8301C1.78615 14.1658 1.92438 14.4827 2.15005 14.733C2.37571 14.9834 2.67661 15.1537 3.00742 15.2182L8.7507 16.3459V22.7498C8.74957 23.0986 8.85323 23.4397 9.04825 23.7289C9.24327 24.0182 9.52065 24.2421 9.84445 24.3718C10.1678 24.5039 10.5233 24.5355 10.8649 24.4628C11.2064 24.39 11.5182 24.2162 11.7596 23.9639L14.529 21.0917L18.9226 24.9373C19.2396 25.2185 19.6484 25.3741 20.0721 25.3748C20.2578 25.3747 20.4423 25.3455 20.619 25.2884C20.9077 25.1968 21.1673 25.0311 21.3721 24.808C21.5768 24.5848 21.7196 24.3119 21.786 24.0164L26.2255 4.70292C26.2653 4.52874 26.2568 4.34704 26.2011 4.17729C26.1455 4.00754 26.0446 3.85614 25.9095 3.73933ZM19.2223 7.67683L9.42336 14.6943L3.99727 13.6301L19.2223 7.67683ZM10.5007 22.7498V17.5567L13.2121 19.9345L10.5007 22.7498ZM20.0743 23.6248L11.0312 15.6951L24.0468 6.36652L20.0743 23.6248Z" fill="#50555F"/>
</svg>
