<svg width="513" height="362" viewBox="0 0 513 362" fill="none" xmlns="http://www.w3.org/2000/svg">
<path d="M387.501 57.0466C391.501 43.7947 398.466 19.3295 394.466 9.13574C407.466 13.723 420.466 27.6885 422.466 38.6978C424.466 49.7071 420.301 74.5799 419.501 77.4342C417.001 75.9051 411.466 73.5605 409.466 74.3761C405.466 68.7695 392.301 57.0466 387.501 57.0466Z" fill="#D6F5DD" stroke="#090909" stroke-width="2.5"/>
<path d="M433.689 301.261C435.189 315.532 440.689 328.274 443.689 334.391" stroke="#090909" stroke-width="4"/>
<path d="M423.191 41.8281C423.991 52.0219 421.691 69.861 418.691 77.5064L410.001 76.9244C399.501 56.0271 351.501 36.1492 312.691 48.964V41.3186L314.191 31.1248L316.191 23.9892L319.191 17.8726C327.191 8.18877 353.691 1.20714 368.691 2.07245C395.191 4.6209 416.191 20.9308 423.191 41.8281Z" stroke="#090909" stroke-width="3"/>
<path d="M334.499 204.856C347.499 217.089 398.189 227.865 425.189 201.361L433.189 212.065C414.689 231.433 357.999 242.574 324.499 214.541L334.499 204.856Z" fill="#E7F9EB" stroke="#090909" stroke-width="4" stroke-linejoin="round"/>
<path d="M395.189 91.7783C397.189 95.8558 402.189 88.2105 411.689 75.9779L386.999 56.0273L366.189 74.4489C368.689 78.5264 371.689 80.1339 378.689 79.0361C385.189 78.0167 391.439 84.133 395.189 91.7783Z" fill="#090909"/>
<path d="M341.689 84.1328C341.689 96.3654 334.689 109.617 342.189 113.185M349.689 127.966C346.189 131.024 341.689 132.553 337.189 130.515" stroke="#090909" stroke-width="4" stroke-linecap="round" stroke-linejoin="round"/>
<ellipse cx="14" cy="14.2713" rx="14" ry="14.2713" transform="matrix(-1 0 0 1 388.189 100.953)" fill="#2EAE4E"/>
<path d="M320.191 134.592C333.191 126.437 336.691 107.069 315.691 101.462H313.691L318.191 134.592H320.191Z" fill="#2EAE4E"/>
<ellipse cx="3" cy="4.07752" rx="3" ry="4.07752" transform="matrix(-1 0 0 1 365.189 85.6621)" fill="#090909"/>
<ellipse cx="3" cy="4.07752" rx="3" ry="4.07752" transform="matrix(-1 0 0 1 327.189 85.6621)" fill="#090909"/>
<path d="M21.1671 64.758C21.0232 67.8708 20.8964 71.8595 20.7952 76.3799C-2.15295 80.4592 -3.27269 53.5131 15.3001 56.2655C19.1106 56.8302 21.345 60.9099 21.1671 64.758Z" fill="white"/>
<path d="M21.1895 43.3572C71.1895 41.3187 172.689 40.2992 188.189 43.3572V131.534H21.1895C20.1851 114.132 20.4832 79.5518 21.1671 64.758C21.345 60.9099 19.1106 56.8302 15.3001 56.2655C-6.5893 53.0215 -1.12508 91.03 35.1895 70.8808" stroke="#090909" stroke-width="4"/>
<path d="M284.189 69.3517C285.689 78.5261 296.689 81.0746 312.189 80.0552H313.689L310.999 50.4205C299.499 48.8915 283.499 62.1436 284.189 69.3517Z" fill="#090909"/>
<path d="M407.19 108.088C407.19 155.489 414.19 190.658 433.69 211.555C446.69 228.375 523.69 252.84 509.19 356.817M483.69 359.365C479.19 344.584 459.69 331.842 444.69 334.39C434.69 337.449 415.877 343.518 410.69 344.074C391.69 346.113 351.19 336.429 344.69 336.429C319.67 336.429 312.19 350.7 308.69 359.875M277.69 358.855C283.69 346.623 288.69 310.945 283.69 302.28C270.23 298.318 257.557 293.796 245.69 288.883M349.19 155.999C349.19 215.633 310.19 226.857 262.69 226.857M262.69 226.857C209.93 221.789 148.031 186.953 123.19 132.043L105.5 131.461C102.5 120.758 90.1902 127.456 69.1902 111.656C67.6902 118.282 71.1902 125.418 87.6902 138.669C95.1902 145.295 113.69 178.765 123.19 195.245C133.035 216.624 175.123 259.667 245.69 288.883M262.69 226.857C252.69 243.156 248.69 258.447 245.69 288.883M365.19 155.999C307.19 160.076 316.19 122.869 310.19 49.9834M400.19 107.069C425.69 110.127 431.19 74.4485 410.19 77.5067" stroke="#090909" stroke-width="4" stroke-linecap="round"/>
<path d="M355.689 76.487C358.189 75.9773 376.689 68.8416 387.189 57.6285C377.742 47.9006 335.999 43.2847 312.61 48.9637C305.11 49.9831 288.999 59.5948 286.499 68.2595C309.999 41.7557 342.189 80.5645 355.689 76.487Z" fill="white" stroke="#090909" stroke-width="4"/>
<path d="M63.2351 82.6811L65.0092 83.1507C65.6353 83.1507 66.9746 82.8551 69.0269 82.2637C69.4096 80.4896 70.0183 77.9677 70.8532 74.6978C72.175 69.6538 72.836 66.8536 72.836 66.297C72.836 65.7404 72.662 65.4622 72.3142 65.4622C71.8968 65.4622 71.2706 65.5665 70.4357 65.7752C69.6357 65.9839 69.2356 66.2622 69.2356 66.6101C69.2356 66.8536 69.4965 67.271 70.0183 67.8624C70.5749 68.4537 70.8532 68.8712 70.8532 69.1147C70.8532 69.3234 70.8358 69.4625 70.801 69.5321C68.0877 72.9759 65.6701 75.4979 63.5482 77.098C63.2003 77.3763 62.8524 77.5154 62.5046 77.5154C61.7393 77.5154 61.2001 76.9937 60.887 75.9501C60.8175 75.7066 60.6435 75.2892 60.3653 74.6978C59.7739 73.3759 59.4782 72.3845 59.4782 71.7236C59.4782 71.0279 59.7565 70.367 60.3131 69.7408C62.7481 67.3058 65.7744 64.7838 69.3922 62.1749C69.8096 61.827 70.3836 61.6531 71.1141 61.6531C71.8446 61.6531 72.662 61.8096 73.5665 62.1227C74.4709 62.401 75.271 63.3054 75.9667 64.836C76.6972 66.3666 77.0624 67.5667 77.0624 68.4363C77.0624 69.2712 76.9233 70.4017 76.645 71.828C76.3667 73.2194 75.7058 76.211 74.6622 80.8027L77.219 80.2287C77.8799 74.5239 79.0278 68.7842 80.6628 63.0098C80.7324 62.801 80.7671 62.6097 80.7671 62.4358C80.7671 62.2271 80.6802 61.9662 80.5062 61.6531C80.3323 61.34 80.2453 61.1139 80.2453 60.9748C80.2453 60.8009 80.3323 60.7139 80.5062 60.7139C80.715 60.7139 80.9411 60.8009 81.1846 60.9748C82.6108 61.914 83.3239 62.8184 83.3239 63.6881C83.3239 64.1055 83.2717 64.5229 83.1674 64.9404C82.2281 69.2538 81.4976 74.089 80.9759 79.4461C81.1846 79.4113 81.4802 79.3939 81.8629 79.3939C82.2455 79.3939 82.9239 79.5852 83.8979 79.9678C84.9067 80.3157 85.411 80.7679 85.411 81.3245C85.411 81.5332 85.2893 81.7419 85.0458 81.9506C84.8023 82.1594 84.2283 82.6637 83.3239 83.4638C82.4195 84.2291 81.8107 84.6639 81.4976 84.7683C81.1846 84.8726 80.8541 84.977 80.5062 85.0814C80.2975 87.3772 80.1932 88.96 80.1932 89.8296C80.1932 90.6645 80.3323 91.8472 80.6106 93.3778C80.8889 94.8736 81.028 95.865 81.028 96.352C81.028 96.8042 80.9237 97.3434 80.715 97.9695C80.5062 98.5957 80.1758 98.9087 79.7236 98.9087C79.4453 98.9087 79.08 98.7174 78.6278 98.3348C77.0624 96.8738 76.2798 95.2736 76.2798 93.5343C76.2798 91.7602 76.4189 89.3426 76.6972 86.2815C75.6188 86.5598 74.4361 86.925 73.149 87.3772C72.2446 91.308 71.7924 93.7256 71.7924 94.6301L72.3142 98.1782C72.3142 98.7348 72.1403 99.2914 71.7924 99.8479C71.4445 100.405 71.0445 100.683 70.5923 100.683C70.1749 100.683 69.827 100.526 69.5487 100.213C69.2704 99.9001 68.9573 99.4131 68.6095 98.7522C68.2964 98.0913 68.1399 97.7434 68.1399 97.7086C67.479 96.4911 67.1485 95.378 67.1485 94.3692C67.1485 93.3604 67.3398 91.5167 67.7225 88.8382C66.6093 88.6991 65.8266 88.3512 65.3744 87.7947C64.9222 87.2381 64.383 86.4206 63.7569 85.3423C63.1655 84.2291 62.8698 83.516 62.8698 83.2029C62.8698 82.8551 62.9916 82.6811 63.2351 82.6811ZM101.152 91.2906C101.152 96.5781 98.4738 99.2218 93.1168 99.2218C90.8905 99.2218 89.2556 98.6478 88.212 97.4999C87.2032 96.352 86.3162 94.5953 85.5509 92.2298C85.2726 91.3254 85.1334 90.3688 85.1334 89.36C85.1334 88.3164 85.5857 86.9424 86.4901 85.2379C87.4293 83.4986 88.4555 81.9854 89.5686 80.6983C89.7078 78.7851 90.1426 77.8285 90.8731 77.8285C91.2557 77.8285 91.5166 78.0546 91.6558 78.5068C92.3863 77.8459 93.2733 77.2024 94.3169 76.5762C95.3605 75.9501 96.2997 75.637 97.1345 75.637C97.9694 75.637 98.8217 76.124 99.6913 77.098C100.596 78.072 101.048 79.0808 101.048 80.1244C101.048 81.1332 100.335 82.5246 98.9086 84.2987C96.2301 87.6381 94.1256 89.3078 92.595 89.3078C91.4818 89.3078 90.6122 88.386 89.9861 86.5424C89.9513 86.6119 89.7773 86.9076 89.4643 87.4294C89.186 87.9164 88.9773 88.2817 88.8381 88.5252C88.7338 88.7687 88.5772 89.0991 88.3685 89.5166C88.0207 90.3166 87.8467 91.0297 87.8467 91.6559C87.8467 93.0821 88.5598 93.7952 89.9861 93.7952C92.3515 93.7952 94.3517 93.3082 95.9866 92.3342C97.6563 91.3254 99.3087 89.8122 100.944 87.7947C101.083 89.3252 101.152 90.4906 101.152 91.2906ZM92.6472 84.977C93.2037 84.977 94.0212 84.2987 95.0996 82.942C96.2127 81.5854 96.7693 80.6636 96.7693 80.1766C96.7693 79.6548 96.578 79.3939 96.1953 79.3939C95.8475 79.3939 95.2213 79.8461 94.3169 80.7505C93.4472 81.655 92.7515 82.4376 92.2297 83.0986C92.1602 83.516 92.1254 83.8291 92.1254 84.0378C92.1254 84.6639 92.2993 84.977 92.6472 84.977ZM106.992 61.3922L106.731 59.8269C106.731 59.4094 106.957 59.2007 107.409 59.2007C107.583 59.2007 107.809 59.2355 108.088 59.3051C110.175 59.7225 111.218 60.9226 111.218 62.9054C111.218 63.3924 111.166 63.9316 111.062 64.5229C110.957 65.0795 110.749 66.2622 110.436 68.0711C110.157 69.88 109.949 71.1844 109.809 71.9845L109.288 75.5848C108.453 81.081 108.035 86.1423 108.035 90.7688C108.035 91.7776 108.279 92.282 108.766 92.282C108.94 92.282 109.131 92.1777 109.34 91.969C111.775 88.9078 113.184 87.0468 113.566 86.3858C113.984 85.6901 114.279 85.3423 114.453 85.3423C114.662 85.3423 114.766 85.5858 114.766 86.0728C114.766 86.525 114.662 87.412 114.453 88.7339C114.279 90.0209 114.175 90.8558 114.14 91.2385C114.106 91.5863 114.019 91.9863 113.879 92.4386C113.775 92.8908 113.671 93.256 113.566 93.5343C113.497 93.7778 113.323 94.1431 113.045 94.6301C112.766 95.0823 112.575 95.378 112.471 95.5171C111.74 96.4911 111.149 97.2564 110.697 97.813C110.279 98.3348 109.775 98.5957 109.183 98.5957C108.627 98.5957 108.088 98.3348 107.566 97.813C107.044 97.2912 106.661 96.8216 106.418 96.4041C106.209 95.9867 105.896 95.3432 105.479 94.4735C104.261 92.1081 103.652 89.6209 103.652 87.012C103.652 84.7857 103.896 82.055 104.383 78.8199C104.905 75.5848 105.218 73.5673 105.322 72.7672C104.522 72.7672 104.122 72.4193 104.122 71.7236C104.122 71.4453 104.157 71.1844 104.226 70.9409C104.331 70.6626 104.661 69.6886 105.218 68.0189C106.4 64.6447 106.992 62.4358 106.992 61.3922ZM119.578 61.3922L119.317 59.8269C119.317 59.4094 119.543 59.2007 119.995 59.2007C120.169 59.2007 120.395 59.2355 120.674 59.3051C122.761 59.7225 123.804 60.9226 123.804 62.9054C123.804 63.3924 123.752 63.9316 123.648 64.5229C123.544 65.0795 123.335 66.2622 123.022 68.0711C122.743 69.88 122.535 71.1844 122.396 71.9845L121.874 75.5848C121.039 81.081 120.621 86.1423 120.621 90.7688C120.621 91.7776 120.865 92.282 121.352 92.282C121.526 92.282 121.717 92.1777 121.926 91.969C124.361 88.9078 125.77 87.0468 126.152 86.3858C126.57 85.6901 126.866 85.3423 127.039 85.3423C127.248 85.3423 127.353 85.5858 127.353 86.0728C127.353 86.525 127.248 87.412 127.039 88.7339C126.866 90.0209 126.761 90.8558 126.726 91.2385C126.692 91.5863 126.605 91.9863 126.466 92.4386C126.361 92.8908 126.257 93.256 126.152 93.5343C126.083 93.7778 125.909 94.1431 125.631 94.6301C125.352 95.0823 125.161 95.378 125.057 95.5171C124.326 96.4911 123.735 97.2564 123.283 97.813C122.865 98.3348 122.361 98.5957 121.769 98.5957C121.213 98.5957 120.674 98.3348 120.152 97.813C119.63 97.2912 119.247 96.8216 119.004 96.4041C118.795 95.9867 118.482 95.3432 118.065 94.4735C116.847 92.1081 116.238 89.6209 116.238 87.012C116.238 84.7857 116.482 82.055 116.969 78.8199C117.491 75.5848 117.804 73.5673 117.908 72.7672C117.108 72.7672 116.708 72.4193 116.708 71.7236C116.708 71.4453 116.743 71.1844 116.812 70.9409C116.917 70.6626 117.247 69.6886 117.804 68.0189C118.987 64.6447 119.578 62.4358 119.578 61.3922ZM140.773 85.864C140.773 90.0731 139.556 93.8126 137.121 97.0825C136.251 98.1956 135.277 98.7522 134.199 98.7522C133.155 98.7522 132.321 98.4913 131.694 97.9695C129.433 96.0911 128.303 92.8734 128.303 88.3164C128.303 85.1509 129.155 81.1158 130.86 76.211C130.999 75.8631 131.12 75.6544 131.225 75.5848C131.329 75.4805 131.503 75.4283 131.747 75.4283C132.025 75.4283 132.355 75.2544 132.738 74.9065C133.121 74.5239 133.747 74.3325 134.616 74.3325C135.521 74.3325 136.425 74.663 137.33 75.3239C138.234 75.9849 138.895 76.8719 139.312 77.9851C140.286 80.594 140.773 83.2203 140.773 85.864ZM136.443 82.4724C136.443 79.2721 136.043 77.672 135.243 77.672C134.86 77.672 134.512 77.9677 134.199 78.559C132.808 81.8637 132.112 85.8119 132.112 90.4036C132.112 91.5515 132.129 92.4212 132.164 93.0125C135.016 90.821 136.443 87.3077 136.443 82.4724Z" fill="#090909"/>
<circle cx="10" cy="10" r="10" transform="matrix(-1 0 0 1 362 7.17822)" fill="#E7F9EB"/>
<path d="M351.241 16.7272L350.831 16.3334L351.197 15.9523L351.604 16.2891L351.241 16.7272ZM350.532 21.6179C350.845 21.603 351.112 21.8452 351.127 22.1588C351.142 22.4725 350.9 22.7389 350.586 22.7539L350.532 21.6179ZM354.269 11.9629C354.618 12.814 354.971 13.8126 355.22 14.7666C355.465 15.7036 355.628 16.6612 355.548 17.4022C355.508 17.7727 355.4 18.1633 355.139 18.4613C354.854 18.7871 354.455 18.9244 354.013 18.8952C353.598 18.8678 353.14 18.6963 352.643 18.4188C352.138 18.1374 351.554 17.724 350.879 17.1652L351.604 16.2891C352.248 16.822 352.774 17.1896 353.197 17.4258C353.627 17.666 353.914 17.749 354.088 17.7604C354.234 17.7701 354.267 17.7306 354.284 17.7118C354.325 17.665 354.389 17.5429 354.417 17.2803C354.474 16.7552 354.358 15.9653 354.12 15.0543C353.886 14.1603 353.551 13.2104 353.217 12.3935L354.269 11.9629ZM351.651 17.1209C350.751 18.0586 349.697 19.3976 349.319 20.4308C349.123 20.9651 349.176 21.2294 349.258 21.3427C349.338 21.4526 349.622 21.6613 350.532 21.6179L350.586 22.7539C349.586 22.8015 348.772 22.6102 348.337 22.0099C347.905 21.4128 348.025 20.6564 348.251 20.0402C348.714 18.7725 349.912 17.2911 350.831 16.3334L351.651 17.1209Z" fill="#2EAE4E"/>
<path d="M352.374 16.7272L352.784 16.3334L352.418 15.9523L352.012 16.2891L352.374 16.7272ZM353.083 21.6179C352.77 21.603 352.503 21.8452 352.488 22.1588C352.473 22.4725 352.716 22.7389 353.029 22.7539L353.083 21.6179ZM349.346 11.9629C348.998 12.814 348.645 13.8126 348.395 14.7666C348.15 15.7036 347.987 16.6612 348.067 17.4022C348.107 17.7727 348.215 18.1633 348.476 18.4613C348.762 18.7871 349.161 18.9244 349.603 18.8952C350.017 18.8678 350.476 18.6963 350.973 18.4188C351.477 18.1374 352.061 17.724 352.737 17.1652L352.012 16.2891C351.368 16.822 350.842 17.1896 350.418 17.4258C349.988 17.666 349.701 17.749 349.528 17.7604C349.381 17.7701 349.348 17.7306 349.331 17.7118C349.29 17.665 349.226 17.5429 349.198 17.2803C349.141 16.7552 349.257 15.9653 349.495 15.0543C349.729 14.1603 350.064 13.2104 350.398 12.3935L349.346 11.9629ZM351.964 17.1209C352.864 18.0586 353.919 19.3976 354.296 20.4308C354.492 20.9651 354.439 21.2294 354.357 21.3427C354.278 21.4526 353.994 21.6613 353.083 21.6179L353.029 22.7539C354.03 22.8015 354.843 22.6102 355.278 22.0099C355.711 21.4128 355.59 20.6564 355.365 20.0402C354.901 18.7725 353.704 17.2911 352.784 16.3334L351.964 17.1209Z" fill="#2EAE4E"/>
<path d="M362.374 283.727L362.784 283.333L362.418 282.952L362.012 283.289L362.374 283.727ZM363.083 288.618C362.77 288.603 362.503 288.845 362.488 289.159C362.473 289.473 362.716 289.739 363.029 289.754L363.083 288.618ZM359.346 278.963C358.998 279.814 358.645 280.813 358.395 281.767C358.15 282.704 357.987 283.661 358.067 284.402C358.107 284.773 358.215 285.163 358.476 285.461C358.762 285.787 359.161 285.924 359.603 285.895C360.017 285.868 360.476 285.696 360.973 285.419C361.477 285.137 362.061 284.724 362.737 284.165L362.012 283.289C361.368 283.822 360.842 284.19 360.418 284.426C359.988 284.666 359.701 284.749 359.528 284.76C359.381 284.77 359.348 284.731 359.331 284.712C359.29 284.665 359.226 284.543 359.198 284.28C359.141 283.755 359.257 282.965 359.495 282.054C359.729 281.16 360.064 280.21 360.398 279.394L359.346 278.963ZM361.964 284.121C362.864 285.059 363.919 286.398 364.296 287.431C364.492 287.965 364.439 288.229 364.357 288.343C364.278 288.453 363.994 288.661 363.083 288.618L363.029 289.754C364.03 289.801 364.843 289.61 365.278 289.01C365.711 288.413 365.59 287.656 365.365 287.04C364.901 285.772 363.704 284.291 362.784 283.333L361.964 284.121Z" fill="#2EAE4E"/>
<path d="M319.374 295.727L319.784 295.333L319.418 294.952L319.012 295.289L319.374 295.727ZM320.083 300.618C319.77 300.603 319.503 300.845 319.488 301.159C319.473 301.473 319.716 301.739 320.029 301.754L320.083 300.618ZM316.346 290.963C315.998 291.814 315.645 292.813 315.395 293.767C315.15 294.704 314.987 295.661 315.067 296.402C315.107 296.773 315.215 297.163 315.476 297.461C315.762 297.787 316.161 297.924 316.603 297.895C317.017 297.868 317.476 297.696 317.973 297.419C318.477 297.137 319.061 296.724 319.737 296.165L319.012 295.289C318.368 295.822 317.842 296.19 317.418 296.426C316.988 296.666 316.701 296.749 316.528 296.76C316.381 296.77 316.348 296.731 316.331 296.712C316.29 296.665 316.226 296.543 316.198 296.28C316.141 295.755 316.257 294.965 316.495 294.054C316.729 293.16 317.064 292.21 317.398 291.394L316.346 290.963ZM318.964 296.121C319.864 297.059 320.919 298.398 321.296 299.431C321.492 299.965 321.439 300.229 321.357 300.343C321.278 300.453 320.994 300.661 320.083 300.618L320.029 301.754C321.03 301.801 321.843 301.61 322.278 301.01C322.711 300.413 322.59 299.656 322.365 299.04C321.901 297.772 320.704 296.291 319.784 295.333L318.964 296.121Z" fill="#2EAE4E"/>
<path d="M441.374 234.727L441.784 234.333L441.418 233.952L441.012 234.289L441.374 234.727ZM442.083 239.618C441.77 239.603 441.503 239.845 441.488 240.159C441.473 240.473 441.716 240.739 442.029 240.754L442.083 239.618ZM438.346 229.963C437.998 230.814 437.645 231.813 437.395 232.767C437.15 233.704 436.987 234.661 437.067 235.402C437.107 235.773 437.215 236.163 437.476 236.461C437.762 236.787 438.161 236.924 438.603 236.895C439.017 236.868 439.476 236.696 439.973 236.419C440.477 236.137 441.061 235.724 441.737 235.165L441.012 234.289C440.368 234.822 439.842 235.19 439.418 235.426C438.988 235.666 438.701 235.749 438.528 235.76C438.381 235.77 438.348 235.731 438.331 235.712C438.29 235.665 438.226 235.543 438.198 235.28C438.141 234.755 438.257 233.965 438.495 233.054C438.729 232.16 439.064 231.21 439.398 230.394L438.346 229.963ZM440.964 235.121C441.864 236.059 442.919 237.398 443.296 238.431C443.492 238.965 443.439 239.229 443.357 239.343C443.278 239.453 442.994 239.661 442.083 239.618L442.029 240.754C443.03 240.801 443.843 240.61 444.278 240.01C444.711 239.413 444.59 238.656 444.365 238.04C443.901 236.772 442.704 235.291 441.784 234.333L440.964 235.121Z" fill="#2EAE4E"/>
<path d="M434.374 268.727L434.784 268.333L434.418 267.952L434.012 268.289L434.374 268.727ZM435.083 273.618C434.77 273.603 434.503 273.845 434.488 274.159C434.473 274.473 434.716 274.739 435.029 274.754L435.083 273.618ZM431.346 263.963C430.998 264.814 430.645 265.813 430.395 266.767C430.15 267.704 429.987 268.661 430.067 269.402C430.107 269.773 430.215 270.163 430.476 270.461C430.762 270.787 431.161 270.924 431.603 270.895C432.017 270.868 432.476 270.696 432.973 270.419C433.477 270.137 434.061 269.724 434.737 269.165L434.012 268.289C433.368 268.822 432.842 269.19 432.418 269.426C431.988 269.666 431.701 269.749 431.528 269.76C431.381 269.77 431.348 269.731 431.331 269.712C431.29 269.665 431.226 269.543 431.198 269.28C431.141 268.755 431.257 267.965 431.495 267.054C431.729 266.16 432.064 265.21 432.398 264.394L431.346 263.963ZM433.964 269.121C434.864 270.059 435.919 271.398 436.296 272.431C436.492 272.965 436.439 273.229 436.357 273.343C436.278 273.453 435.994 273.661 435.083 273.618L435.029 274.754C436.03 274.801 436.843 274.61 437.278 274.01C437.711 273.413 437.59 272.656 437.365 272.04C436.901 270.772 435.704 269.291 434.784 268.333L433.964 269.121Z" fill="#2EAE4E"/>
<path d="M470.374 298.727L470.784 298.333L470.418 297.952L470.012 298.289L470.374 298.727ZM471.083 303.618C470.77 303.603 470.503 303.845 470.488 304.159C470.473 304.473 470.716 304.739 471.029 304.754L471.083 303.618ZM467.346 293.963C466.998 294.814 466.645 295.813 466.395 296.767C466.15 297.704 465.987 298.661 466.067 299.402C466.107 299.773 466.215 300.163 466.476 300.461C466.762 300.787 467.161 300.924 467.603 300.895C468.017 300.868 468.476 300.696 468.973 300.419C469.477 300.137 470.061 299.724 470.737 299.165L470.012 298.289C469.368 298.822 468.842 299.19 468.418 299.426C467.988 299.666 467.701 299.749 467.528 299.76C467.381 299.77 467.348 299.731 467.331 299.712C467.29 299.665 467.226 299.543 467.198 299.28C467.141 298.755 467.257 297.965 467.495 297.054C467.729 296.16 468.064 295.21 468.398 294.394L467.346 293.963ZM469.964 299.121C470.864 300.059 471.919 301.398 472.296 302.431C472.492 302.965 472.439 303.229 472.357 303.343C472.278 303.453 471.994 303.661 471.083 303.618L471.029 304.754C472.03 304.801 472.843 304.61 473.278 304.01C473.711 303.413 473.59 302.656 473.365 302.04C472.901 300.772 471.704 299.291 470.784 298.333L469.964 299.121Z" fill="#2EAE4E"/>
<path d="M467.374 260.727L467.784 260.333L467.418 259.952L467.012 260.289L467.374 260.727ZM468.083 265.618C467.77 265.603 467.503 265.845 467.488 266.159C467.473 266.473 467.716 266.739 468.029 266.754L468.083 265.618ZM464.346 255.963C463.998 256.814 463.645 257.813 463.395 258.767C463.15 259.704 462.987 260.661 463.067 261.402C463.107 261.773 463.215 262.163 463.476 262.461C463.762 262.787 464.161 262.924 464.603 262.895C465.017 262.868 465.476 262.696 465.973 262.419C466.477 262.137 467.061 261.724 467.737 261.165L467.012 260.289C466.368 260.822 465.842 261.19 465.418 261.426C464.988 261.666 464.701 261.749 464.528 261.76C464.381 261.77 464.348 261.731 464.331 261.712C464.29 261.665 464.226 261.543 464.198 261.28C464.141 260.755 464.257 259.965 464.495 259.054C464.729 258.16 465.064 257.21 465.398 256.394L464.346 255.963ZM466.964 261.121C467.864 262.059 468.919 263.398 469.296 264.431C469.492 264.965 469.439 265.229 469.357 265.343C469.278 265.453 468.994 265.661 468.083 265.618L468.029 266.754C469.03 266.801 469.843 266.61 470.278 266.01C470.711 265.413 470.59 264.656 470.365 264.04C469.901 262.772 468.704 261.291 467.784 260.333L466.964 261.121Z" fill="#2EAE4E"/>
<path d="M420.374 234.727L420.784 234.333L420.418 233.952L420.012 234.289L420.374 234.727ZM421.083 239.618C420.77 239.603 420.503 239.845 420.488 240.159C420.473 240.473 420.716 240.739 421.029 240.754L421.083 239.618ZM417.346 229.963C416.998 230.814 416.645 231.813 416.395 232.767C416.15 233.704 415.987 234.661 416.067 235.402C416.107 235.773 416.215 236.163 416.476 236.461C416.762 236.787 417.161 236.924 417.603 236.895C418.017 236.868 418.476 236.696 418.973 236.419C419.477 236.137 420.061 235.724 420.737 235.165L420.012 234.289C419.368 234.822 418.842 235.19 418.418 235.426C417.988 235.666 417.701 235.749 417.528 235.76C417.381 235.77 417.348 235.731 417.331 235.712C417.29 235.665 417.226 235.543 417.198 235.28C417.141 234.755 417.257 233.965 417.495 233.054C417.729 232.16 418.064 231.21 418.398 230.394L417.346 229.963ZM419.964 235.121C420.864 236.059 421.919 237.398 422.296 238.431C422.492 238.965 422.439 239.229 422.357 239.343C422.278 239.453 421.994 239.661 421.083 239.618L421.029 240.754C422.03 240.801 422.843 240.61 423.278 240.01C423.711 239.413 423.59 238.656 423.365 238.04C422.901 236.772 421.704 235.291 420.784 234.333L419.964 235.121Z" fill="#2EAE4E"/>
<path d="M302.374 258.727L302.784 258.333L302.418 257.952L302.012 258.289L302.374 258.727ZM303.083 263.618C302.77 263.603 302.503 263.845 302.488 264.159C302.473 264.473 302.716 264.739 303.029 264.754L303.083 263.618ZM299.346 253.963C298.998 254.814 298.645 255.813 298.395 256.767C298.15 257.704 297.987 258.661 298.067 259.402C298.107 259.773 298.215 260.163 298.476 260.461C298.762 260.787 299.161 260.924 299.603 260.895C300.017 260.868 300.476 260.696 300.973 260.419C301.477 260.137 302.061 259.724 302.737 259.165L302.012 258.289C301.368 258.822 300.842 259.19 300.418 259.426C299.988 259.666 299.701 259.749 299.528 259.76C299.381 259.77 299.348 259.731 299.331 259.712C299.29 259.665 299.226 259.543 299.198 259.28C299.141 258.755 299.257 257.965 299.495 257.054C299.729 256.16 300.064 255.21 300.398 254.394L299.346 253.963ZM301.964 259.121C302.864 260.059 303.919 261.398 304.296 262.431C304.492 262.965 304.439 263.229 304.357 263.343C304.278 263.453 303.994 263.661 303.083 263.618L303.029 264.754C304.03 264.801 304.843 264.61 305.278 264.01C305.711 263.413 305.59 262.656 305.365 262.04C304.901 260.772 303.704 259.291 302.784 258.333L301.964 259.121Z" fill="#2EAE4E"/>
<path d="M390.374 259.727L390.784 259.333L390.418 258.952L390.012 259.289L390.374 259.727ZM391.083 264.618C390.77 264.603 390.503 264.845 390.488 265.159C390.473 265.473 390.716 265.739 391.029 265.754L391.083 264.618ZM387.346 254.963C386.998 255.814 386.645 256.813 386.395 257.767C386.15 258.704 385.987 259.661 386.067 260.402C386.107 260.773 386.215 261.163 386.476 261.461C386.762 261.787 387.161 261.924 387.603 261.895C388.017 261.868 388.476 261.696 388.973 261.419C389.477 261.137 390.061 260.724 390.737 260.165L390.012 259.289C389.368 259.822 388.842 260.19 388.418 260.426C387.988 260.666 387.701 260.749 387.528 260.76C387.381 260.77 387.348 260.731 387.331 260.712C387.29 260.665 387.226 260.543 387.198 260.28C387.141 259.755 387.257 258.965 387.495 258.054C387.729 257.16 388.064 256.21 388.398 255.394L387.346 254.963ZM389.964 260.121C390.864 261.059 391.919 262.398 392.296 263.431C392.492 263.965 392.439 264.229 392.357 264.343C392.278 264.453 391.994 264.661 391.083 264.618L391.029 265.754C392.03 265.801 392.843 265.61 393.278 265.01C393.711 264.413 393.59 263.656 393.365 263.04C392.901 261.772 391.704 260.291 390.784 259.333L389.964 260.121Z" fill="#2EAE4E"/>
<path d="M346.374 253.727L346.784 253.333L346.418 252.952L346.012 253.289L346.374 253.727ZM347.083 258.618C346.77 258.603 346.503 258.845 346.488 259.159C346.473 259.473 346.716 259.739 347.029 259.754L347.083 258.618ZM343.346 248.963C342.998 249.814 342.645 250.813 342.395 251.767C342.15 252.704 341.987 253.661 342.067 254.402C342.107 254.773 342.215 255.163 342.476 255.461C342.762 255.787 343.161 255.924 343.603 255.895C344.017 255.868 344.476 255.696 344.973 255.419C345.477 255.137 346.061 254.724 346.737 254.165L346.012 253.289C345.368 253.822 344.842 254.19 344.418 254.426C343.988 254.666 343.701 254.749 343.528 254.76C343.381 254.77 343.348 254.731 343.331 254.712C343.29 254.665 343.226 254.543 343.198 254.28C343.141 253.755 343.257 252.965 343.495 252.054C343.729 251.16 344.064 250.21 344.398 249.394L343.346 248.963ZM345.964 254.121C346.864 255.059 347.919 256.398 348.296 257.431C348.492 257.965 348.439 258.229 348.357 258.343C348.278 258.453 347.994 258.661 347.083 258.618L347.029 259.754C348.03 259.801 348.843 259.61 349.278 259.01C349.711 258.413 349.59 257.656 349.365 257.04C348.901 255.772 347.704 254.291 346.784 253.333L345.964 254.121Z" fill="#2EAE4E"/>
<path d="M334.374 232.727L334.784 232.333L334.418 231.952L334.012 232.289L334.374 232.727ZM335.083 237.618C334.77 237.603 334.503 237.845 334.488 238.159C334.473 238.473 334.716 238.739 335.029 238.754L335.083 237.618ZM331.346 227.963C330.998 228.814 330.645 229.813 330.395 230.767C330.15 231.704 329.987 232.661 330.067 233.402C330.107 233.773 330.215 234.163 330.476 234.461C330.762 234.787 331.161 234.924 331.603 234.895C332.017 234.868 332.476 234.696 332.973 234.419C333.477 234.137 334.061 233.724 334.737 233.165L334.012 232.289C333.368 232.822 332.842 233.19 332.418 233.426C331.988 233.666 331.701 233.749 331.528 233.76C331.381 233.77 331.348 233.731 331.331 233.712C331.29 233.665 331.226 233.543 331.198 233.28C331.141 232.755 331.257 231.965 331.495 231.054C331.729 230.16 332.064 229.21 332.398 228.394L331.346 227.963ZM333.964 233.121C334.864 234.059 335.919 235.398 336.296 236.431C336.492 236.965 336.439 237.229 336.357 237.343C336.278 237.453 335.994 237.661 335.083 237.618L335.029 238.754C336.03 238.801 336.843 238.61 337.278 238.01C337.711 237.413 337.59 236.656 337.365 236.04C336.901 234.772 335.704 233.291 334.784 232.333L333.964 233.121Z" fill="#2EAE4E"/>
<path d="M284.374 234.727L284.784 234.333L284.418 233.952L284.012 234.289L284.374 234.727ZM285.083 239.618C284.77 239.603 284.503 239.845 284.488 240.159C284.473 240.473 284.716 240.739 285.029 240.754L285.083 239.618ZM281.346 229.963C280.998 230.814 280.645 231.813 280.395 232.767C280.15 233.704 279.987 234.661 280.067 235.402C280.107 235.773 280.215 236.163 280.476 236.461C280.762 236.787 281.161 236.924 281.603 236.895C282.017 236.868 282.476 236.696 282.973 236.419C283.477 236.137 284.061 235.724 284.737 235.165L284.012 234.289C283.368 234.822 282.842 235.19 282.418 235.426C281.988 235.666 281.701 235.749 281.528 235.76C281.381 235.77 281.348 235.731 281.331 235.712C281.29 235.665 281.226 235.543 281.198 235.28C281.141 234.755 281.257 233.965 281.495 233.054C281.729 232.16 282.064 231.21 282.398 230.394L281.346 229.963ZM283.964 235.121C284.864 236.059 285.919 237.398 286.296 238.431C286.492 238.965 286.439 239.229 286.357 239.343C286.278 239.453 285.994 239.661 285.083 239.618L285.029 240.754C286.03 240.801 286.843 240.61 287.278 240.01C287.711 239.413 287.59 238.656 287.365 238.04C286.901 236.772 285.704 235.291 284.784 234.333L283.964 235.121Z" fill="#2EAE4E"/>
<path d="M269.374 270.727L269.784 270.333L269.418 269.952L269.012 270.289L269.374 270.727ZM270.083 275.618C269.77 275.603 269.503 275.845 269.488 276.159C269.473 276.473 269.716 276.739 270.029 276.754L270.083 275.618ZM266.346 265.963C265.998 266.814 265.645 267.813 265.395 268.767C265.15 269.704 264.987 270.661 265.067 271.402C265.107 271.773 265.215 272.163 265.476 272.461C265.762 272.787 266.161 272.924 266.603 272.895C267.017 272.868 267.476 272.696 267.973 272.419C268.477 272.137 269.061 271.724 269.737 271.165L269.012 270.289C268.368 270.822 267.842 271.19 267.418 271.426C266.988 271.666 266.701 271.749 266.528 271.76C266.381 271.77 266.348 271.731 266.331 271.712C266.29 271.665 266.226 271.543 266.198 271.28C266.141 270.755 266.257 269.965 266.495 269.054C266.729 268.16 267.064 267.21 267.398 266.394L266.346 265.963ZM268.964 271.121C269.864 272.059 270.919 273.398 271.296 274.431C271.492 274.965 271.439 275.229 271.357 275.343C271.278 275.453 270.994 275.661 270.083 275.618L270.029 276.754C271.03 276.801 271.843 276.61 272.278 276.01C272.711 275.413 272.59 274.656 272.365 274.04C271.901 272.772 270.704 271.291 269.784 270.333L268.964 271.121Z" fill="#2EAE4E"/>
<path d="M299.374 307.727L299.784 307.333L299.418 306.952L299.012 307.289L299.374 307.727ZM300.083 312.618C299.77 312.603 299.503 312.845 299.488 313.159C299.473 313.473 299.716 313.739 300.029 313.754L300.083 312.618ZM296.346 302.963C295.998 303.814 295.645 304.813 295.395 305.767C295.15 306.704 294.987 307.661 295.067 308.402C295.107 308.773 295.215 309.163 295.476 309.461C295.762 309.787 296.161 309.924 296.603 309.895C297.017 309.868 297.476 309.696 297.973 309.419C298.477 309.137 299.061 308.724 299.737 308.165L299.012 307.289C298.368 307.822 297.842 308.19 297.418 308.426C296.988 308.666 296.701 308.749 296.528 308.76C296.381 308.77 296.348 308.731 296.331 308.712C296.29 308.665 296.226 308.543 296.198 308.28C296.141 307.755 296.257 306.965 296.495 306.054C296.729 305.16 297.064 304.21 297.398 303.394L296.346 302.963ZM298.964 308.121C299.864 309.059 300.919 310.398 301.296 311.431C301.492 311.965 301.439 312.229 301.357 312.343C301.278 312.453 300.994 312.661 300.083 312.618L300.029 313.754C301.03 313.801 301.843 313.61 302.278 313.01C302.711 312.413 302.59 311.656 302.365 311.04C301.901 309.772 300.704 308.291 299.784 307.333L298.964 308.121Z" fill="#2EAE4E"/>
<path d="M415.374 314.727L415.784 314.333L415.418 313.952L415.012 314.289L415.374 314.727ZM416.083 319.618C415.77 319.603 415.503 319.845 415.488 320.159C415.473 320.473 415.716 320.739 416.029 320.754L416.083 319.618ZM412.346 309.963C411.998 310.814 411.645 311.813 411.395 312.767C411.15 313.704 410.987 314.661 411.067 315.402C411.107 315.773 411.215 316.163 411.476 316.461C411.762 316.787 412.161 316.924 412.603 316.895C413.017 316.868 413.476 316.696 413.973 316.419C414.477 316.137 415.061 315.724 415.737 315.165L415.012 314.289C414.368 314.822 413.842 315.19 413.418 315.426C412.988 315.666 412.701 315.749 412.528 315.76C412.381 315.77 412.348 315.731 412.331 315.712C412.29 315.665 412.226 315.543 412.198 315.28C412.141 314.755 412.257 313.965 412.495 313.054C412.729 312.16 413.064 311.21 413.398 310.394L412.346 309.963ZM414.964 315.121C415.864 316.059 416.919 317.398 417.296 318.431C417.492 318.965 417.439 319.229 417.357 319.343C417.278 319.453 416.994 319.661 416.083 319.618L416.029 320.754C417.03 320.801 417.843 320.61 418.278 320.01C418.711 319.413 418.59 318.656 418.365 318.04C417.901 316.772 416.704 315.291 415.784 314.333L414.964 315.121Z" fill="#2EAE4E"/>
<path d="M407.374 285.727L407.784 285.333L407.418 284.952L407.012 285.289L407.374 285.727ZM408.083 290.618C407.77 290.603 407.503 290.845 407.488 291.159C407.473 291.473 407.716 291.739 408.029 291.754L408.083 290.618ZM404.346 280.963C403.998 281.814 403.645 282.813 403.395 283.767C403.15 284.704 402.987 285.661 403.067 286.402C403.107 286.773 403.215 287.163 403.476 287.461C403.762 287.787 404.161 287.924 404.603 287.895C405.017 287.868 405.476 287.696 405.973 287.419C406.477 287.137 407.061 286.724 407.737 286.165L407.012 285.289C406.368 285.822 405.842 286.19 405.418 286.426C404.988 286.666 404.701 286.749 404.528 286.76C404.381 286.77 404.348 286.731 404.331 286.712C404.29 286.665 404.226 286.543 404.198 286.28C404.141 285.755 404.257 284.965 404.495 284.054C404.729 283.16 405.064 282.21 405.398 281.394L404.346 280.963ZM406.964 286.121C407.864 287.059 408.919 288.398 409.296 289.431C409.492 289.965 409.439 290.229 409.357 290.343C409.278 290.453 408.994 290.661 408.083 290.618L408.029 291.754C409.03 291.801 409.843 291.61 410.278 291.01C410.711 290.413 410.59 289.656 410.365 289.04C409.901 287.772 408.704 286.291 407.784 285.333L406.964 286.121Z" fill="#2EAE4E"/>
<path d="M356.374 312.727L356.784 312.333L356.418 311.952L356.012 312.289L356.374 312.727ZM357.083 317.618C356.77 317.603 356.503 317.845 356.488 318.159C356.473 318.473 356.716 318.739 357.029 318.754L357.083 317.618ZM353.346 307.963C352.998 308.814 352.645 309.813 352.395 310.767C352.15 311.704 351.987 312.661 352.067 313.402C352.107 313.773 352.215 314.163 352.476 314.461C352.762 314.787 353.161 314.924 353.603 314.895C354.017 314.868 354.476 314.696 354.973 314.419C355.477 314.137 356.061 313.724 356.737 313.165L356.012 312.289C355.368 312.822 354.842 313.19 354.418 313.426C353.988 313.666 353.701 313.749 353.528 313.76C353.381 313.77 353.348 313.731 353.331 313.712C353.29 313.665 353.226 313.543 353.198 313.28C353.141 312.755 353.257 311.965 353.495 311.054C353.729 310.16 354.064 309.21 354.398 308.394L353.346 307.963ZM355.964 313.121C356.864 314.059 357.919 315.398 358.296 316.431C358.492 316.965 358.439 317.229 358.357 317.343C358.278 317.453 357.994 317.661 357.083 317.618L357.029 318.754C358.03 318.801 358.843 318.61 359.278 318.01C359.711 317.413 359.59 316.656 359.365 316.04C358.901 314.772 357.704 313.291 356.784 312.333L355.964 313.121Z" fill="#2EAE4E"/>
<path d="M376.374 232.727L376.784 232.333L376.418 231.952L376.012 232.289L376.374 232.727ZM377.083 237.618C376.77 237.603 376.503 237.845 376.488 238.159C376.473 238.473 376.716 238.739 377.029 238.754L377.083 237.618ZM373.346 227.963C372.998 228.814 372.645 229.813 372.395 230.767C372.15 231.704 371.987 232.661 372.067 233.402C372.107 233.773 372.215 234.163 372.476 234.461C372.762 234.787 373.161 234.924 373.603 234.895C374.017 234.868 374.476 234.696 374.973 234.419C375.477 234.137 376.061 233.724 376.737 233.165L376.012 232.289C375.368 232.822 374.842 233.19 374.418 233.426C373.988 233.666 373.701 233.749 373.528 233.76C373.381 233.77 373.348 233.731 373.331 233.712C373.29 233.665 373.226 233.543 373.198 233.28C373.141 232.755 373.257 231.965 373.495 231.054C373.729 230.16 374.064 229.21 374.398 228.394L373.346 227.963ZM375.964 233.121C376.864 234.059 377.919 235.398 378.296 236.431C378.492 236.965 378.439 237.229 378.357 237.343C378.278 237.453 377.994 237.661 377.083 237.618L377.029 238.754C378.03 238.801 378.843 238.61 379.278 238.01C379.711 237.413 379.59 236.656 379.365 236.04C378.901 234.772 377.704 233.291 376.784 232.333L375.964 233.121Z" fill="#2EAE4E"/>
<path d="M386.374 315.727L386.784 315.333L386.418 314.952L386.012 315.289L386.374 315.727ZM387.083 320.618C386.77 320.603 386.503 320.845 386.488 321.159C386.473 321.473 386.716 321.739 387.029 321.754L387.083 320.618ZM383.346 310.963C382.998 311.814 382.645 312.813 382.395 313.767C382.15 314.704 381.987 315.661 382.067 316.402C382.107 316.773 382.215 317.163 382.476 317.461C382.762 317.787 383.161 317.924 383.603 317.895C384.017 317.868 384.476 317.696 384.973 317.419C385.477 317.137 386.061 316.724 386.737 316.165L386.012 315.289C385.368 315.822 384.842 316.19 384.418 316.426C383.988 316.666 383.701 316.749 383.528 316.76C383.381 316.77 383.348 316.731 383.331 316.712C383.29 316.665 383.226 316.543 383.198 316.28C383.141 315.755 383.257 314.965 383.495 314.054C383.729 313.16 384.064 312.21 384.398 311.394L383.346 310.963ZM385.964 316.121C386.864 317.059 387.919 318.398 388.296 319.431C388.492 319.965 388.439 320.229 388.357 320.343C388.278 320.453 387.994 320.661 387.083 320.618L387.029 321.754C388.03 321.801 388.843 321.61 389.278 321.01C389.711 320.413 389.59 319.656 389.365 319.04C388.901 317.772 387.704 316.291 386.784 315.333L385.964 316.121Z" fill="#2EAE4E"/>
<path d="M500.374 319.727L500.784 319.333L500.418 318.952L500.012 319.289L500.374 319.727ZM501.083 324.618C500.77 324.603 500.503 324.845 500.488 325.159C500.473 325.473 500.716 325.739 501.029 325.754L501.083 324.618ZM497.346 314.963C496.998 315.814 496.645 316.813 496.395 317.767C496.15 318.704 495.987 319.661 496.067 320.402C496.107 320.773 496.215 321.163 496.476 321.461C496.762 321.787 497.161 321.924 497.603 321.895C498.017 321.868 498.476 321.696 498.973 321.419C499.477 321.137 500.061 320.724 500.737 320.165L500.012 319.289C499.368 319.822 498.842 320.19 498.418 320.426C497.988 320.666 497.701 320.749 497.528 320.76C497.381 320.77 497.348 320.731 497.331 320.712C497.29 320.665 497.226 320.543 497.198 320.28C497.141 319.755 497.257 318.965 497.495 318.054C497.729 317.16 498.064 316.21 498.398 315.394L497.346 314.963ZM499.964 320.121C500.864 321.059 501.919 322.398 502.296 323.431C502.492 323.965 502.439 324.229 502.357 324.343C502.278 324.453 501.994 324.661 501.083 324.618L501.029 325.754C502.03 325.801 502.843 325.61 503.278 325.01C503.711 324.413 503.59 323.656 503.365 323.04C502.901 321.772 501.704 320.291 500.784 319.333L499.964 320.121Z" fill="#2EAE4E"/>
<path d="M491.374 278.727L491.784 278.333L491.418 277.952L491.012 278.289L491.374 278.727ZM492.083 283.618C491.77 283.603 491.503 283.845 491.488 284.159C491.473 284.473 491.716 284.739 492.029 284.754L492.083 283.618ZM488.346 273.963C487.998 274.814 487.645 275.813 487.395 276.767C487.15 277.704 486.987 278.661 487.067 279.402C487.107 279.773 487.215 280.163 487.476 280.461C487.762 280.787 488.161 280.924 488.603 280.895C489.017 280.868 489.476 280.696 489.973 280.419C490.477 280.137 491.061 279.724 491.737 279.165L491.012 278.289C490.368 278.822 489.842 279.19 489.418 279.426C488.988 279.666 488.701 279.749 488.528 279.76C488.381 279.77 488.348 279.731 488.331 279.712C488.29 279.665 488.226 279.543 488.198 279.28C488.141 278.755 488.257 277.965 488.495 277.054C488.729 276.16 489.064 275.21 489.398 274.394L488.346 273.963ZM490.964 279.121C491.864 280.059 492.919 281.398 493.296 282.431C493.492 282.965 493.439 283.229 493.357 283.343C493.278 283.453 492.994 283.661 492.083 283.618L492.029 284.754C493.03 284.801 493.843 284.61 494.278 284.01C494.711 283.413 494.59 282.656 494.365 282.04C493.901 280.772 492.704 279.291 491.784 278.333L490.964 279.121Z" fill="#2EAE4E"/>
<path d="M324.374 273.727L324.784 273.333L324.418 272.952L324.012 273.289L324.374 273.727ZM325.083 278.618C324.77 278.603 324.503 278.845 324.488 279.159C324.473 279.473 324.716 279.739 325.029 279.754L325.083 278.618ZM321.346 268.963C320.998 269.814 320.645 270.813 320.395 271.767C320.15 272.704 319.987 273.661 320.067 274.402C320.107 274.773 320.215 275.163 320.476 275.461C320.762 275.787 321.161 275.924 321.603 275.895C322.017 275.868 322.476 275.696 322.973 275.419C323.477 275.137 324.061 274.724 324.737 274.165L324.012 273.289C323.368 273.822 322.842 274.19 322.418 274.426C321.988 274.666 321.701 274.749 321.528 274.76C321.381 274.77 321.348 274.731 321.331 274.712C321.29 274.665 321.226 274.543 321.198 274.28C321.141 273.755 321.257 272.965 321.495 272.054C321.729 271.16 322.064 270.21 322.398 269.394L321.346 268.963ZM323.964 274.121C324.864 275.059 325.919 276.398 326.296 277.431C326.492 277.965 326.439 278.229 326.357 278.343C326.278 278.453 325.994 278.661 325.083 278.618L325.029 279.754C326.03 279.801 326.843 279.61 327.278 279.01C327.711 278.413 327.59 277.656 327.365 277.04C326.901 275.772 325.704 274.291 324.784 273.333L323.964 274.121Z" fill="#2EAE4E"/>
<path d="M309.374 227.727L309.784 227.333L309.418 226.952L309.012 227.289L309.374 227.727ZM310.083 232.618C309.77 232.603 309.503 232.845 309.488 233.159C309.473 233.473 309.716 233.739 310.029 233.754L310.083 232.618ZM306.346 222.963C305.998 223.814 305.645 224.813 305.395 225.767C305.15 226.704 304.987 227.661 305.067 228.402C305.107 228.773 305.215 229.163 305.476 229.461C305.762 229.787 306.161 229.924 306.603 229.895C307.017 229.868 307.476 229.696 307.973 229.419C308.477 229.137 309.061 228.724 309.737 228.165L309.012 227.289C308.368 227.822 307.842 228.19 307.418 228.426C306.988 228.666 306.701 228.749 306.528 228.76C306.381 228.77 306.348 228.731 306.331 228.712C306.29 228.665 306.226 228.543 306.198 228.28C306.141 227.755 306.257 226.965 306.495 226.054C306.729 225.16 307.064 224.21 307.398 223.394L306.346 222.963ZM308.964 228.121C309.864 229.059 310.919 230.398 311.296 231.431C311.492 231.965 311.439 232.229 311.357 232.343C311.278 232.453 310.994 232.661 310.083 232.618L310.029 233.754C311.03 233.801 311.843 233.61 312.278 233.01C312.711 232.413 312.59 231.656 312.365 231.04C311.901 229.772 310.704 228.291 309.784 227.333L308.964 228.121Z" fill="#2EAE4E"/>
<path d="M410.374 254.727L410.784 254.333L410.418 253.952L410.012 254.289L410.374 254.727ZM411.083 259.618C410.77 259.603 410.503 259.845 410.488 260.159C410.473 260.473 410.716 260.739 411.029 260.754L411.083 259.618ZM407.346 249.963C406.998 250.814 406.645 251.813 406.395 252.767C406.15 253.704 405.987 254.661 406.067 255.402C406.107 255.773 406.215 256.163 406.476 256.461C406.762 256.787 407.161 256.924 407.603 256.895C408.017 256.868 408.476 256.696 408.973 256.419C409.477 256.137 410.061 255.724 410.737 255.165L410.012 254.289C409.368 254.822 408.842 255.19 408.418 255.426C407.988 255.666 407.701 255.749 407.528 255.76C407.381 255.77 407.348 255.731 407.331 255.712C407.29 255.665 407.226 255.543 407.198 255.28C407.141 254.755 407.257 253.965 407.495 253.054C407.729 252.16 408.064 251.21 408.398 250.394L407.346 249.963ZM409.964 255.121C410.864 256.059 411.919 257.398 412.296 258.431C412.492 258.965 412.439 259.229 412.357 259.343C412.278 259.453 411.994 259.661 411.083 259.618L411.029 260.754C412.03 260.801 412.843 260.61 413.278 260.01C413.711 259.413 413.59 258.656 413.365 258.04C412.901 256.772 411.704 255.291 410.784 254.333L409.964 255.121Z" fill="#2EAE4E"/>
<path d="M464.374 237.727L464.784 237.333L464.418 236.952L464.012 237.289L464.374 237.727ZM465.083 242.618C464.77 242.603 464.503 242.845 464.488 243.159C464.473 243.473 464.716 243.739 465.029 243.754L465.083 242.618ZM461.346 232.963C460.998 233.814 460.645 234.813 460.395 235.767C460.15 236.704 459.987 237.661 460.067 238.402C460.107 238.773 460.215 239.163 460.476 239.461C460.762 239.787 461.161 239.924 461.603 239.895C462.017 239.868 462.476 239.696 462.973 239.419C463.477 239.137 464.061 238.724 464.737 238.165L464.012 237.289C463.368 237.822 462.842 238.19 462.418 238.426C461.988 238.666 461.701 238.749 461.528 238.76C461.381 238.77 461.348 238.731 461.331 238.712C461.29 238.665 461.226 238.543 461.198 238.28C461.141 237.755 461.257 236.965 461.495 236.054C461.729 235.16 462.064 234.21 462.398 233.394L461.346 232.963ZM463.964 238.121C464.864 239.059 465.919 240.398 466.296 241.431C466.492 241.965 466.439 242.229 466.357 242.343C466.278 242.453 465.994 242.661 465.083 242.618L465.029 243.754C466.03 243.801 466.843 243.61 467.278 243.01C467.711 242.413 467.59 241.656 467.365 241.04C466.901 239.772 465.704 238.291 464.784 237.333L463.964 238.121Z" fill="#2EAE4E"/>
<path d="M450.374 307.727L450.784 307.333L450.418 306.952L450.012 307.289L450.374 307.727ZM451.083 312.618C450.77 312.603 450.503 312.845 450.488 313.159C450.473 313.473 450.716 313.739 451.029 313.754L451.083 312.618ZM447.346 302.963C446.998 303.814 446.645 304.813 446.395 305.767C446.15 306.704 445.987 307.661 446.067 308.402C446.107 308.773 446.215 309.163 446.476 309.461C446.762 309.787 447.161 309.924 447.603 309.895C448.017 309.868 448.476 309.696 448.973 309.419C449.477 309.137 450.061 308.724 450.737 308.165L450.012 307.289C449.368 307.822 448.842 308.19 448.418 308.426C447.988 308.666 447.701 308.749 447.528 308.76C447.381 308.77 447.348 308.731 447.331 308.712C447.29 308.665 447.226 308.543 447.198 308.28C447.141 307.755 447.257 306.965 447.495 306.054C447.729 305.16 448.064 304.21 448.398 303.394L447.346 302.963ZM449.964 308.121C450.864 309.059 451.919 310.398 452.296 311.431C452.492 311.965 452.439 312.229 452.357 312.343C452.278 312.453 451.994 312.661 451.083 312.618L451.029 313.754C452.03 313.801 452.843 313.61 453.278 313.01C453.711 312.413 453.59 311.656 453.365 311.04C452.901 309.772 451.704 308.291 450.784 307.333L449.964 308.121Z" fill="#2EAE4E"/>
<path d="M343.374 288.727L343.784 288.333L343.418 287.952L343.012 288.289L343.374 288.727ZM344.083 293.618C343.77 293.603 343.503 293.845 343.488 294.159C343.473 294.473 343.716 294.739 344.029 294.754L344.083 293.618ZM340.346 283.963C339.998 284.814 339.645 285.813 339.395 286.767C339.15 287.704 338.987 288.661 339.067 289.402C339.107 289.773 339.215 290.163 339.476 290.461C339.762 290.787 340.161 290.924 340.603 290.895C341.017 290.868 341.476 290.696 341.973 290.419C342.477 290.137 343.061 289.724 343.737 289.165L343.012 288.289C342.368 288.822 341.842 289.19 341.418 289.426C340.988 289.666 340.701 289.749 340.528 289.76C340.381 289.77 340.348 289.731 340.331 289.712C340.29 289.665 340.226 289.543 340.198 289.28C340.141 288.755 340.257 287.965 340.495 287.054C340.729 286.16 341.064 285.21 341.398 284.394L340.346 283.963ZM342.964 289.121C343.864 290.059 344.919 291.398 345.296 292.431C345.492 292.965 345.439 293.229 345.357 293.343C345.278 293.453 344.994 293.661 344.083 293.618L344.029 294.754C345.03 294.801 345.843 294.61 346.278 294.01C346.711 293.413 346.59 292.656 346.365 292.04C345.901 290.772 344.704 289.291 343.784 288.333L342.964 289.121Z" fill="#2EAE4E"/>
<path d="M369.374 252.727L369.784 252.333L369.418 251.952L369.012 252.289L369.374 252.727ZM370.083 257.618C369.77 257.603 369.503 257.845 369.488 258.159C369.473 258.473 369.716 258.739 370.029 258.754L370.083 257.618ZM366.346 247.963C365.998 248.814 365.645 249.813 365.395 250.767C365.15 251.704 364.987 252.661 365.067 253.402C365.107 253.773 365.215 254.163 365.476 254.461C365.762 254.787 366.161 254.924 366.603 254.895C367.017 254.868 367.476 254.696 367.973 254.419C368.477 254.137 369.061 253.724 369.737 253.165L369.012 252.289C368.368 252.822 367.842 253.19 367.418 253.426C366.988 253.666 366.701 253.749 366.528 253.76C366.381 253.77 366.348 253.731 366.331 253.712C366.29 253.665 366.226 253.543 366.198 253.28C366.141 252.755 366.257 251.965 366.495 251.054C366.729 250.16 367.064 249.21 367.398 248.394L366.346 247.963ZM368.964 253.121C369.864 254.059 370.919 255.398 371.296 256.431C371.492 256.965 371.439 257.229 371.357 257.343C371.278 257.453 370.994 257.661 370.083 257.618L370.029 258.754C371.03 258.801 371.843 258.61 372.278 258.01C372.711 257.413 372.59 256.656 372.365 256.04C371.901 254.772 370.704 253.291 369.784 252.333L368.964 253.121Z" fill="#2EAE4E"/>
<path d="M387.374 287.727L387.784 287.333L387.418 286.952L387.012 287.289L387.374 287.727ZM388.083 292.618C387.77 292.603 387.503 292.845 387.488 293.159C387.473 293.473 387.716 293.739 388.029 293.754L388.083 292.618ZM384.346 282.963C383.998 283.814 383.645 284.813 383.395 285.767C383.15 286.704 382.987 287.661 383.067 288.402C383.107 288.773 383.215 289.163 383.476 289.461C383.762 289.787 384.161 289.924 384.603 289.895C385.017 289.868 385.476 289.696 385.973 289.419C386.477 289.137 387.061 288.724 387.737 288.165L387.012 287.289C386.368 287.822 385.842 288.19 385.418 288.426C384.988 288.666 384.701 288.749 384.528 288.76C384.381 288.77 384.348 288.731 384.331 288.712C384.29 288.665 384.226 288.543 384.198 288.28C384.141 287.755 384.257 286.965 384.495 286.054C384.729 285.16 385.064 284.21 385.398 283.394L384.346 282.963ZM386.964 288.121C387.864 289.059 388.919 290.398 389.296 291.431C389.492 291.965 389.439 292.229 389.357 292.343C389.278 292.453 388.994 292.661 388.083 292.618L388.029 293.754C389.03 293.801 389.843 293.61 390.278 293.01C390.711 292.413 390.59 291.656 390.365 291.04C389.901 289.772 388.704 288.291 387.784 287.333L386.964 288.121Z" fill="#2EAE4E"/>
<path d="M456.374 276.727L456.784 276.333L456.418 275.952L456.012 276.289L456.374 276.727ZM457.083 281.618C456.77 281.603 456.503 281.845 456.488 282.159C456.473 282.473 456.716 282.739 457.029 282.754L457.083 281.618ZM453.346 271.963C452.998 272.814 452.645 273.813 452.395 274.767C452.15 275.704 451.987 276.661 452.067 277.402C452.107 277.773 452.215 278.163 452.476 278.461C452.762 278.787 453.161 278.924 453.603 278.895C454.017 278.868 454.476 278.696 454.973 278.419C455.477 278.137 456.061 277.724 456.737 277.165L456.012 276.289C455.368 276.822 454.842 277.19 454.418 277.426C453.988 277.666 453.701 277.749 453.528 277.76C453.381 277.77 453.348 277.731 453.331 277.712C453.29 277.665 453.226 277.543 453.198 277.28C453.141 276.755 453.257 275.965 453.495 275.054C453.729 274.16 454.064 273.21 454.398 272.394L453.346 271.963ZM455.964 277.121C456.864 278.059 457.919 279.398 458.296 280.431C458.492 280.965 458.439 281.229 458.357 281.343C458.278 281.453 457.994 281.661 457.083 281.618L457.029 282.754C458.03 282.801 458.843 282.61 459.278 282.01C459.711 281.413 459.59 280.656 459.365 280.04C458.901 278.772 457.704 277.291 456.784 276.333L455.964 277.121Z" fill="#2EAE4E"/>
<path d="M310.374 326.727L310.784 326.333L310.418 325.952L310.012 326.289L310.374 326.727ZM311.083 331.618C310.77 331.603 310.503 331.845 310.488 332.159C310.473 332.473 310.716 332.739 311.029 332.754L311.083 331.618ZM307.346 321.963C306.998 322.814 306.645 323.813 306.395 324.767C306.15 325.704 305.987 326.661 306.067 327.402C306.107 327.773 306.215 328.163 306.476 328.461C306.762 328.787 307.161 328.924 307.603 328.895C308.017 328.868 308.476 328.696 308.973 328.419C309.477 328.137 310.061 327.724 310.737 327.165L310.012 326.289C309.368 326.822 308.842 327.19 308.418 327.426C307.988 327.666 307.701 327.749 307.528 327.76C307.381 327.77 307.348 327.731 307.331 327.712C307.29 327.665 307.226 327.543 307.198 327.28C307.141 326.755 307.257 325.965 307.495 325.054C307.729 324.16 308.064 323.21 308.398 322.394L307.346 321.963ZM309.964 327.121C310.864 328.059 311.919 329.398 312.296 330.431C312.492 330.965 312.439 331.229 312.357 331.343C312.278 331.453 311.994 331.661 311.083 331.618L311.029 332.754C312.03 332.801 312.843 332.61 313.278 332.01C313.711 331.413 313.59 330.656 313.365 330.04C312.901 328.772 311.704 327.291 310.784 326.333L309.964 327.121Z" fill="#2EAE4E"/>
<path d="M308.374 210.727L308.784 210.333L308.418 209.952L308.012 210.289L308.374 210.727ZM309.083 215.618C308.77 215.603 308.503 215.845 308.488 216.159C308.473 216.473 308.716 216.739 309.029 216.754L309.083 215.618ZM305.346 205.963C304.998 206.814 304.645 207.813 304.395 208.767C304.15 209.704 303.987 210.661 304.067 211.402C304.107 211.773 304.215 212.163 304.476 212.461C304.762 212.787 305.161 212.924 305.603 212.895C306.017 212.868 306.476 212.696 306.973 212.419C307.477 212.137 308.061 211.724 308.737 211.165L308.012 210.289C307.368 210.822 306.842 211.19 306.418 211.426C305.988 211.666 305.701 211.749 305.528 211.76C305.381 211.77 305.348 211.731 305.331 211.712C305.29 211.665 305.226 211.543 305.198 211.28C305.141 210.755 305.257 209.965 305.495 209.054C305.729 208.16 306.064 207.21 306.398 206.394L305.346 205.963ZM307.964 211.121C308.864 212.059 309.919 213.398 310.296 214.431C310.492 214.965 310.439 215.229 310.357 215.343C310.278 215.453 309.994 215.661 309.083 215.618L309.029 216.754C310.03 216.801 310.843 216.61 311.278 216.01C311.711 215.413 311.59 214.656 311.365 214.04C310.901 212.772 309.704 211.291 308.784 210.333L307.964 211.121Z" fill="#2EAE4E"/>
</svg>
