<svg width="256" height="304" viewBox="0 0 256 304" fill="none" xmlns="http://www.w3.org/2000/svg">
<path d="M192.777 130.827C192.039 89.1777 178.189 49.834 127.888 49.834C76.4599 51.2508 63.6719 88.7615 63.8808 130.827M192.777 130.827C193.116 150.005 190.676 169.673 187.733 186.213M192.777 130.827C211.296 130.827 200.572 177.875 187.733 186.213M187.733 186.213C185.878 196.643 183.823 205.829 182.139 212.864C182.115 212.965 182.079 213.059 182.03 213.15C174.225 227.418 153.129 244.715 146.953 249.939C138.016 257.498 115.377 256.49 108.228 249.939C93.3334 238.028 76.1752 219.685 74.2687 213.015C72.8182 204.912 71.1111 195.831 69.5044 186.213M63.8808 130.827C63.9725 149.301 66.5711 168.653 69.5044 186.213M63.8808 130.827C46.2662 130.827 56.9894 179.662 69.5044 186.213" stroke="#DBE1E7" stroke-width="0.743842"/>
<ellipse cx="71.8967" cy="87.3511" rx="1.78731" ry="1.78665" fill="#2EAE4E"/>
<ellipse cx="101.686" cy="71.8667" rx="1.78731" ry="1.78665" fill="#2EAE4E"/>
<ellipse cx="112.41" cy="114.749" rx="1.78731" ry="1.78665" fill="#2EAE4E"/>
<ellipse cx="143.787" cy="114.787" rx="1.78731" ry="1.78665" fill="#2EAE4E"/>
<ellipse cx="154.113" cy="129.041" rx="1.78731" ry="1.78665" fill="#2EAE4E"/>
<ellipse cx="127.752" cy="153.783" rx="1.78731" ry="1.78665" fill="#2EAE4E"/>
<ellipse cx="101.686" cy="129.041" rx="1.78731" ry="1.78665" fill="#2EAE4E"/>
<ellipse cx="80.2385" cy="129.041" rx="1.78731" ry="1.78665" fill="#2EAE4E"/>
<ellipse cx="67.1311" cy="152.861" rx="1.78731" ry="1.78665" fill="#2EAE4E"/>
<ellipse cx="101.686" cy="169.537" rx="1.78731" ry="1.78665" fill="#2EAE4E"/>
<ellipse cx="76.6623" cy="210.036" rx="1.78731" ry="1.78665" fill="#2EAE4E"/>
<ellipse cx="101.686" cy="213.606" rx="1.78731" ry="1.78665" fill="#2EAE4E"/>
<ellipse cx="101.686" cy="237.43" rx="1.78731" ry="1.78665" fill="#2EAE4E"/>
<ellipse cx="127.901" cy="232.665" rx="1.78731" ry="1.78665" fill="#2EAE4E"/>
<ellipse cx="155.305" cy="237.43" rx="1.78731" ry="1.78665" fill="#2EAE4E"/>
<ellipse cx="155.305" cy="215.992" rx="1.78731" ry="1.78665" fill="#2EAE4E"/>
<ellipse cx="179.137" cy="208.844" rx="1.78731" ry="1.78665" fill="#2EAE4E"/>
<ellipse cx="155.305" cy="169.537" rx="1.78731" ry="1.78665" fill="#2EAE4E"/>
<ellipse cx="127.901" cy="192.168" rx="1.78731" ry="1.78665" fill="#2EAE4E"/>
<ellipse cx="138.623" cy="182.638" rx="1.78731" ry="1.78665" fill="#2EAE4E"/>
<ellipse cx="117.176" cy="182.638" rx="1.78731" ry="1.78665" fill="#2EAE4E"/>
<ellipse cx="175.561" cy="129.041" rx="1.78731" ry="1.78665" fill="#2EAE4E"/>
<ellipse cx="188.668" cy="152.861" rx="1.78731" ry="1.78665" fill="#2EAE4E"/>
<ellipse cx="155.305" cy="71.8667" rx="1.78731" ry="1.78665" fill="#2EAE4E"/>
<ellipse cx="183.903" cy="87.3511" rx="1.78731" ry="1.78665" fill="#2EAE4E"/>
<path d="M72.4173 87.6136L101.45 71.9355M72.4173 87.6136L79.9659 130.002M72.4173 87.6136L112.483 115.486M101.45 71.9355H154.871M101.45 71.9355L112.483 115.486M154.871 71.9355L184.484 87.6136M154.871 71.9355L143.257 115.486M184.484 87.6136L175.774 130.002M184.484 87.6136L143.257 115.486M175.774 130.002L187.945 152.131C188.273 152.728 188.033 153.478 187.42 153.774L154.871 169.488M175.774 130.002H154.871M154.871 169.488L180.057 208.668C180.51 209.372 180.112 210.312 179.29 210.476L154.871 215.36M154.871 169.488V215.36M154.871 169.488L127.58 153.229M154.871 169.488L137.814 184.004M154.871 215.36V237.088C154.871 237.854 154.157 238.42 153.411 238.245L127.58 232.2M154.871 215.36L127.58 232.2M154.871 215.36L137.814 184.004M127.58 232.2L101.257 237.684C100.482 237.845 99.7688 237.218 99.8295 236.429L101.45 215.36M127.58 232.2L101.45 215.36M101.45 215.36L78.1356 210.48C77.3302 210.312 76.9356 209.396 77.3662 208.695L101.45 169.488M101.45 215.36V169.488M101.45 215.36L117.709 184.004M101.45 169.488L68.3315 153.77C67.7132 153.477 67.4697 152.723 67.7996 152.123L79.9659 130.002M101.45 169.488L127.58 153.229M101.45 169.488L117.709 184.004M79.9659 130.002H101.45M112.483 115.486L101.45 130.002M112.483 115.486H143.257M101.45 130.002L127.58 153.229M127.58 153.229L154.871 130.002M127.58 153.229V192.714M127.58 153.229L117.709 184.004M127.58 153.229L137.814 184.004M154.871 130.002L143.257 115.486M127.58 192.714L137.814 184.004M127.58 192.714L117.709 184.004" stroke="#2EAE4E" stroke-dasharray="4.76 4.76"/>
<path d="M41.5124 1H16.4538C7.91892 1 1 7.91893 1 16.4538V41.4975" stroke="#DBE1E7" stroke-width="1.18876"/>
<path d="M41.5124 302.944H16.4538C7.91892 302.944 1 296.025 1 287.49V262.447" stroke="#DBE1E7" stroke-width="1.2"/>
<path d="M214.882 1H239.941C248.476 1 255.395 7.91893 255.395 16.4538V41.4975" stroke="#DBE1E7" stroke-width="1.18876"/>
<path d="M214.882 302.944H239.941C248.476 302.944 255.395 296.025 255.395 287.49V262.447" stroke="#DBE1E7" stroke-width="1.2"/>
<mask id="path-32-outside-1_693_12258" maskUnits="userSpaceOnUse" x="1" y="182.069" width="255" height="120" fill="black">
<rect fill="white" x="1" y="182.069" width="255" height="120"/>
<path d="M1 184.069H255.394V301.756H1V184.069Z"/>
</mask>
<path d="M1 184.069H255.394V301.756H1V184.069Z" fill="url(#paint0_linear_693_12258)" fill-opacity="0.5"/>
<path d="M1 185.269H255.394V182.869H1V185.269Z" fill="#2EAE4E" mask="url(#path-32-outside-1_693_12258)"/>
<defs>
<linearGradient id="paint0_linear_693_12258" x1="128.197" y1="184.069" x2="128.197" y2="301.756" gradientUnits="userSpaceOnUse">
<stop stop-color="#CFF2D7"/>
<stop offset="1" stop-color="white" stop-opacity="0"/>
</linearGradient>
</defs>
</svg>
