<svg width="28" height="29" viewBox="0 0 28 29" fill="none" xmlns="http://www.w3.org/2000/svg">
<path opacity="0.2" d="M26.25 8.74984L22.75 12.2498C22.2841 19.5605 16.1788 25.3748 8.75 25.3748C5.25 25.3748 4.375 24.0623 4.375 24.0623C4.375 24.0623 7.875 22.7498 9.625 20.1248C9.625 20.1248 3.59297 16.6248 4.46031 6.99984C4.46031 6.99984 8.79812 11.3748 14 12.2498V10.4998C14 8.09359 15.9688 6.0953 18.375 6.12483C19.2242 6.1347 20.0529 6.38702 20.7634 6.85208C21.474 7.31714 22.0369 7.97558 22.3858 8.74984H26.25Z" fill="#50555F"/>
<path d="M27.0576 8.41528C26.9914 8.25538 26.8793 8.1187 26.7354 8.02253C26.5916 7.92635 26.4224 7.875 26.2493 7.87496H22.9211C22.4558 7.08321 21.7936 6.42535 20.9987 5.96536C20.2039 5.50537 19.3036 5.25891 18.3853 5.24996C17.7013 5.24089 17.0224 5.36879 16.3887 5.62614C15.7549 5.88348 15.179 6.26506 14.695 6.7484C14.1962 7.23735 13.8002 7.82115 13.5305 8.46545C13.2608 9.10974 13.1227 9.80149 13.1243 10.5V11.1661C8.72091 10.0045 5.11919 6.42246 5.08091 6.38418C4.96352 6.26575 4.81473 6.18333 4.65207 6.14663C4.48941 6.10992 4.31964 6.12046 4.16277 6.17701C4.0059 6.23355 3.86845 6.33374 3.76661 6.46578C3.66477 6.59782 3.60278 6.75622 3.58794 6.92231C3.11763 12.1493 4.63466 15.6471 5.99419 17.6607C6.65741 18.6562 7.46421 19.5482 8.38841 20.3076C6.71825 22.225 4.09544 23.2323 4.0681 23.2432C3.94463 23.2895 3.8332 23.363 3.74215 23.4584C3.6511 23.5537 3.58278 23.6684 3.54229 23.7939C3.5018 23.9194 3.49018 24.0524 3.50831 24.183C3.52645 24.3136 3.57386 24.4384 3.647 24.5481C3.72794 24.6706 4.05716 25.1004 4.85888 25.5018C5.852 25.9984 7.16122 26.25 8.74935 26.25C16.48 26.25 22.9375 20.2978 23.5981 12.6393L26.8684 9.36903C26.9907 9.24659 27.074 9.09062 27.1077 8.92085C27.1414 8.75108 27.1239 8.57514 27.0576 8.41528ZM22.1357 11.632C21.9857 11.7824 21.8955 11.9822 21.882 12.1942C21.4368 19.0946 15.6706 24.5 8.74935 24.5C7.59435 24.5 6.7806 24.3468 6.20966 24.1631C7.46966 23.4795 9.22403 22.3037 10.3528 20.6106C10.4189 20.5114 10.4641 20.3998 10.4855 20.2826C10.507 20.1654 10.5042 20.045 10.4775 19.9289C10.4508 19.8127 10.4006 19.7033 10.3301 19.6072C10.2595 19.5112 10.1701 19.4305 10.0673 19.3703C10.0531 19.3615 8.66075 18.5237 7.38981 16.6042C5.96466 14.4495 5.24935 11.854 5.24935 8.86918C6.99935 10.2911 10.1986 12.4982 13.8561 13.1129C13.9814 13.1337 14.1097 13.127 14.2321 13.0932C14.3546 13.0594 14.4682 12.9994 14.5651 12.9173C14.662 12.8352 14.7398 12.7329 14.7932 12.6177C14.8466 12.5025 14.8743 12.377 14.8743 12.25V10.5C14.8734 10.0332 14.9658 9.57096 15.1461 9.14044C15.3264 8.70992 15.591 8.31982 15.9243 7.99309C16.2437 7.67269 16.6242 7.41969 17.0431 7.2491C17.4621 7.0785 17.9111 6.99378 18.3634 6.99996C19.7481 7.01746 21.042 7.86184 21.5834 9.10106C21.6517 9.25686 21.7638 9.38939 21.9062 9.48243C22.0486 9.57548 22.215 9.62501 22.3851 9.62496H24.1351L22.1357 11.632Z" fill="#50555F"/>
</svg>
